<?xml version="1.0" standalone="no"?>
<!DOCTYPE svg PUBLIC "-//W3C//DTD SVG 20010904//EN"
 "http://www.w3.org/TR/2001/REC-SVG-20010904/DTD/svg10.dtd">
<svg version="1.0" xmlns="http://www.w3.org/2000/svg"
 width="196.000000pt" height="196.000000pt" viewBox="0 0 196.000000 196.000000"
 preserveAspectRatio="xMidYMid meet">
<metadata>
Created by potrace 1.14, written by Peter Selinger 2001-2017
</metadata>
<g transform="translate(0.000000,196.000000) scale(0.100000,-0.100000)"
fill="#000000" stroke="none">
<path d="M809 1795 c-258 -53 -489 -244 -588 -483 -16 -38 -32 -83 -35 -99 -5
-23 -14 -32 -42 -39 -20 -5 -36 -13 -37 -19 -1 -7 296 -11 871 -13 828 -2 873
-1 870 15 -2 12 -15 20 -37 23 -31 5 -34 9 -55 75 -78 246 -281 443 -541 525
-89 29 -305 37 -406 15z m401 -68 c160 -55 313 -169 403 -301 44 -65 107 -199
107 -228 0 -17 -42 -18 -746 -18 l-745 0 7 23 c83 269 284 464 554 537 111 30
314 24 420 -13z"/>
<path d="M857 1670 c-16 -22 -47 -50 -68 -61 -38 -19 -40 -22 -33 -52 4 -18
12 -60 19 -94 l12 -63 -26 0 c-31 0 -101 -63 -101 -90 0 -11 15 -34 33 -52 49
-49 158 -72 303 -65 120 5 197 27 219 61 8 11 30 30 50 40 29 16 35 25 35 51
0 35 -15 55 -41 55 -14 0 -19 13 -24 64 l-7 64 -102 45 c-55 25 -117 52 -136
60 -20 8 -48 28 -62 46 -15 17 -30 31 -35 31 -4 0 -21 -18 -36 -40z m39 -49
c-12 -19 -24 -12 -19 10 4 13 9 17 15 11 6 -6 7 -15 4 -21z m64 -72 c52 -11
124 -25 160 -31 76 -13 90 -22 90 -55 l0 -25 -82 6 c-136 9 -191 16 -225 27
-18 6 -37 8 -43 4 -18 -11 -69 5 -74 23 -2 9 -8 32 -11 51 l-7 34 48 -7 c27
-4 92 -16 144 -27z m-155 -89 c3 -5 1 -10 -4 -10 -6 0 -11 5 -11 10 0 6 2 10
4 10 3 0 8 -4 11 -10z m53 -21 c18 -29 11 -30 -15 -2 -12 13 -17 23 -10 23 7
0 18 -9 25 -21z m128 5 c60 -9 137 -16 172 -15 l62 0 0 -36 c0 -24 -3 -34 -10
-27 -5 5 -43 7 -85 4 -42 -3 -86 -1 -98 3 -12 5 -59 11 -105 14 -45 3 -85 11
-89 16 -4 6 2 8 16 4 13 -3 24 0 27 7 3 7 18 10 41 8 22 -3 33 -1 30 5 -4 6
-23 10 -44 10 -20 -1 -38 4 -41 11 -5 15 -7 15 124 -4z m-39 -70 c-3 -3 -12
-4 -19 -1 -8 3 -5 6 6 6 11 1 17 -2 13 -5z m100 -31 c8 -10 12 -13 9 -7 -3 7
1 15 10 18 24 9 76 7 70 -3 -7 -11 12 -27 39 -33 11 -3 -9 -5 -45 -6 -39 -1
-77 5 -97 14 -34 17 -58 11 -49 -12 3 -8 -1 -14 -10 -14 -8 0 -12 5 -9 10 3 6
0 10 -7 10 -9 1 -7 5 4 14 14 10 15 15 5 26 -10 10 -5 12 27 7 21 -3 45 -14
53 -24z m208 7 c4 -6 11 -8 16 -5 23 15 6 -16 -20 -34 -41 -30 -76 -41 -171
-57 -155 -26 -352 -11 -376 28 -5 8 -1 9 12 4 39 -17 55 -18 68 -7 11 9 28 8
75 -8 57 -19 131 -19 131 -1 0 4 42 10 93 14 130 9 152 16 150 49 -2 27 10 36
22 17z m-75 -96 c0 -3 -16 -12 -35 -20 -41 -17 -156 -34 -149 -22 3 4 -1 9 -8
9 -10 1 125 28 185 38 4 0 7 -1 7 -5z"/>
<path d="M825 1550 c-3 -5 -1 -10 4 -10 6 0 11 5 11 10 0 6 -2 10 -4 10 -3 0
-8 -4 -11 -10z"/>
<path d="M845 1510 c-3 -5 -1 -10 4 -10 6 0 11 5 11 10 0 6 -2 10 -4 10 -3 0
-8 -4 -11 -10z"/>
<path d="M1010 1505 c7 -9 15 -13 17 -11 7 7 -7 26 -19 26 -6 0 -6 -6 2 -15z"/>
<path d="M965 1500 c3 -5 8 -10 11 -10 2 0 4 5 4 10 0 6 -5 10 -11 10 -5 0 -7
-4 -4 -10z"/>
<path d="M988 1473 c7 -3 16 -2 19 1 4 3 -2 6 -13 5 -11 0 -14 -3 -6 -6z"/>
<path d="M410 1433 c0 -10 4 -24 9 -32 6 -9 5 -21 -2 -32 -9 -14 -5 -23 21
-49 18 -18 29 -24 25 -14 -4 12 -3 15 5 10 7 -4 12 -12 12 -17 0 -18 28 -40
35 -29 4 7 11 8 18 2 19 -15 97 -12 97 4 0 8 -9 14 -20 14 -15 0 -20 7 -20 29
0 21 -9 36 -37 57 -21 15 -44 36 -51 46 -7 9 -19 15 -26 12 -8 -3 -17 -1 -21
5 -11 18 -45 13 -45 -6z m30 -83 c0 -5 -2 -10 -4 -10 -3 0 -8 5 -11 10 -3 6
-1 10 4 10 6 0 11 -4 11 -10z"/>
<path d="M1524 1442 c3 -5 -8 -8 -25 -7 -18 1 -35 -5 -42 -15 -7 -9 -29 -29
-49 -44 -28 -21 -38 -36 -38 -56 0 -19 -6 -29 -20 -33 -11 -3 -20 -9 -20 -14
0 -12 89 -13 96 -1 4 7 9 6 14 -3 6 -9 12 -9 24 4 9 8 16 20 16 26 0 5 5 13
12 17 8 5 9 2 5 -10 -4 -10 -3 -15 3 -11 6 3 10 13 10 21 0 8 7 14 15 14 20 0
30 27 17 43 -7 8 -7 18 -2 27 15 23 12 50 -6 50 -8 0 -13 -4 -10 -8z m-124
-92 c0 -5 -5 -10 -11 -10 -5 0 -7 5 -4 10 3 6 8 10 11 10 2 0 4 -4 4 -10z"/>
<path d="M599 1083 c-13 -35 -6 -38 26 -10 28 24 28 24 6 30 -17 4 -24 0 -32
-20z"/>
<path d="M887 1083 c-3 -16 -4 -29 -3 -31 2 -1 16 8 31 20 26 20 26 22 9 29
-29 12 -31 11 -37 -18z"/>
<path d="M1054 1095 c-9 -21 3 -45 21 -45 10 0 15 10 15 30 0 32 -26 43 -36
15z"/>
<path d="M1150 1080 c0 -21 5 -30 16 -30 14 0 16 -9 12 -55 -4 -47 -2 -55 11
-53 23 4 28 90 6 108 -8 7 -15 23 -15 36 0 15 -6 24 -15 24 -10 0 -15 -10 -15
-30z"/>
<path d="M345 1090 c-3 -5 -54 -11 -113 -12 -59 -1 -88 -3 -64 -5 40 -4 42 -6
42 -36 -1 -18 -5 -52 -10 -77 -4 -25 -7 -47 -5 -49 2 -2 13 12 24 30 13 22 21
51 21 82 0 26 5 47 10 47 6 0 10 -28 10 -62 0 -79 8 -93 49 -85 31 6 31 6 31
-38 0 -33 4 -45 15 -45 12 0 15 17 17 85 0 47 1 91 2 98 1 6 -6 12 -14 12 -10
0 -17 -13 -20 -35 -3 -23 -11 -36 -22 -38 -15 -2 -18 5 -18 52 l0 55 48 3 c43
3 45 4 25 16 -14 8 -24 9 -28 2z"/>
<path d="M1215 1090 c-3 -5 1 -10 10 -10 9 0 13 5 10 10 -3 6 -8 10 -10 10 -2
0 -7 -4 -10 -10z"/>
<path d="M1458 1059 c-17 -23 -36 -39 -48 -39 -18 0 -20 -7 -20 -70 0 -64 -2
-70 -20 -70 -20 0 -20 -1 -4 -25 19 -29 27 -31 48 -9 12 11 16 36 16 94 l0 79
40 23 c43 25 46 30 28 46 -10 7 -20 -1 -40 -29z"/>
<path d="M1690 1075 c0 -16 6 -25 15 -25 9 0 15 9 15 25 0 16 -6 25 -15 25 -9
0 -15 -9 -15 -25z"/>
<path d="M450 1070 c11 -21 22 -25 33 -13 9 9 -12 33 -30 33 -11 0 -11 -4 -3
-20z"/>
<path d="M527 1070 c7 -25 22 -35 35 -22 6 6 4 15 -7 26 -22 22 -34 20 -28 -4z"/>
<path d="M740 1070 c12 -22 25 -26 35 -11 3 6 -3 15 -14 20 -28 16 -33 14 -21
-9z"/>
<path d="M810 1083 c0 -5 6 -18 14 -29 17 -22 35 -11 20 13 -12 19 -34 29 -34
16z"/>
<path d="M1786 1065 c-4 -11 2 -15 21 -15 21 0 24 2 13 15 -7 8 -16 15 -20 15
-4 0 -10 -7 -14 -15z"/>
<path d="M1590 997 c0 -40 -5 -90 -10 -112 -12 -51 -6 -56 16 -13 10 18 20 67
23 110 6 68 4 77 -11 82 -16 4 -18 -4 -18 -67z"/>
<path d="M635 1050 c-9 -15 -1 -23 21 -18 15 3 16 4 1 16 -11 9 -17 10 -22 2z"/>
<path d="M925 1050 c-9 -15 -1 -23 21 -18 15 3 16 4 1 16 -11 9 -17 10 -22 2z"/>
<path d="M1030 993 c0 -46 3 -54 17 -51 14 3 17 12 15 46 -3 37 -1 42 17 42
19 0 21 -6 21 -55 0 -42 -3 -55 -15 -55 -8 0 -15 -4 -15 -10 0 -5 -17 -21 -37
-35 -44 -30 -23 -34 25 -5 41 25 42 25 42 -5 0 -16 6 -25 15 -25 12 0 15 17
15 95 0 52 -3 95 -7 95 -5 1 -27 5 -50 9 l-43 8 0 -54z"/>
<path d="M140 939 c0 -81 3 -99 15 -99 8 0 15 3 15 8 11 158 10 180 -10 185
-19 5 -20 0 -20 -94z"/>
<path d="M1700 989 l0 -52 -36 6 -37 6 7 -56 c4 -32 8 -59 11 -61 12 -12 25
15 25 54 0 43 1 44 33 44 l32 0 0 55 c0 46 -3 55 -17 55 -15 0 -18 -9 -18 -51z"/>
<path d="M424 1014 c3 -9 6 -18 6 -20 0 -2 7 -4 15 -4 20 0 19 26 -1 34 -24 9
-27 8 -20 -10z"/>
<path d="M464 971 c-23 -45 -29 -67 -26 -99 3 -28 9 -42 18 -42 21 0 26 22 14
54 -8 21 -5 39 10 83 11 31 19 58 17 59 -1 1 -16 -23 -33 -55z"/>
<path d="M562 938 c3 -79 6 -93 21 -96 15 -3 17 5 17 62 l0 66 37 0 c36 0 37
1 19 18 -13 12 -20 14 -23 5 -8 -23 -33 -14 -33 12 0 18 -5 25 -20 25 -20 0
-21 -5 -18 -92z"/>
<path d="M710 1010 c10 -19 40 -28 40 -12 0 13 -23 32 -37 32 -11 0 -11 -5 -3
-20z"/>
<path d="M755 972 c-40 -80 -40 -166 -1 -133 11 9 12 19 4 44 -8 25 -6 43 11
86 11 30 19 56 18 58 -2 1 -16 -23 -32 -55z"/>
<path d="M850 935 c0 -88 1 -95 20 -95 18 0 20 7 20 65 l0 65 37 0 c35 0 36 1
20 17 -13 13 -19 14 -29 5 -19 -19 -28 -14 -28 13 0 18 -5 25 -20 25 -19 0
-20 -7 -20 -95z"/>
<path d="M1780 1005 c-11 -13 -8 -15 15 -15 23 0 26 2 15 15 -7 8 -14 15 -15
15 -1 0 -8 -7 -15 -15z"/>
<path d="M1490 985 c-11 -13 -8 -15 15 -15 23 0 26 2 15 15 -7 8 -14 15 -15
15 -1 0 -8 -7 -15 -15z"/>
<path d="M518 973 c6 -2 18 -2 25 0 6 3 1 5 -13 5 -14 0 -19 -2 -12 -5z"/>
<path d="M808 973 c6 -2 18 -2 25 0 6 3 1 5 -13 5 -14 0 -19 -2 -12 -5z"/>
<path d="M1775 944 c-16 -6 -6 -104 11 -104 10 0 14 13 14 45 0 25 0 48 1 52
1 9 -13 13 -26 7z"/>
<path d="M926 925 c-4 -10 1 -15 16 -15 17 0 18 2 8 15 -7 8 -14 15 -15 15 -2
0 -5 -7 -9 -15z"/>
<path d="M1215 930 c-4 -6 3 -10 14 -10 25 0 27 6 6 13 -8 4 -17 2 -20 -3z"/>
<path d="M635 920 c-3 -5 3 -10 15 -10 12 0 18 5 15 10 -3 6 -10 10 -15 10 -5
0 -12 -4 -15 -10z"/>
<path d="M1180 875 c26 -28 42 -31 59 -12 9 11 3 16 -28 25 -54 17 -58 15 -31
-13z"/>
<path d="M100 731 c0 -5 24 -12 53 -15 l52 -7 50 -97 c40 -80 65 -113 140
-188 166 -168 348 -243 586 -244 310 0 581 164 724 441 l45 86 50 7 c27 4 50
11 50 16 0 6 -319 10 -875 10 -501 0 -875 -4 -875 -9z m1590 -26 c0 -12 -45
-93 -80 -145 -51 -75 -164 -180 -247 -229 -114 -67 -208 -94 -351 -99 -178 -7
-306 28 -452 122 -114 74 -254 238 -284 334 l-7 22 710 0 c391 0 711 -2 711
-5z"/>
<path d="M540 589 c0 -12 8 -23 20 -26 11 -3 20 -9 20 -13 0 -5 -9 -6 -20 -3
-12 3 -20 0 -20 -6 0 -8 12 -11 32 -9 39 4 52 36 19 45 -12 3 -21 9 -21 14 0
5 6 6 14 3 8 -3 17 -1 21 5 4 7 -7 11 -29 11 -30 0 -36 -4 -36 -21z"/>
<path d="M620 570 c0 -39 1 -40 33 -39 17 1 24 3 15 6 -13 3 -18 15 -18 39 0
24 -5 34 -15 34 -11 0 -15 -11 -15 -40z"/>
<path d="M692 598 c-15 -15 -15 -41 0 -56 18 -18 66 -15 77 6 9 16 10 16 16 0
5 -12 18 -18 41 -18 27 0 34 4 34 20 0 25 -9 25 -26 3 -12 -17 -13 -17 -19 0
-11 27 1 46 24 40 12 -3 21 -1 21 6 0 19 -67 13 -75 -6 -6 -17 -7 -17 -16 0
-11 20 -59 23 -77 5z m53 -28 c0 -8 -8 -16 -17 -18 -13 -2 -18 3 -18 18 0 15
5 20 18 18 9 -2 17 -10 17 -18z"/>
<path d="M885 574 c-18 -45 -18 -44 0 -44 8 0 15 5 15 10 0 6 7 10 15 10 8 0
15 -4 15 -10 0 -5 7 -10 15 -10 18 0 18 -1 0 44 -8 20 -22 36 -30 36 -8 0 -22
-16 -30 -36z"/>
<path d="M970 570 c0 -22 5 -40 10 -40 6 0 10 7 10 17 0 15 1 15 18 0 30 -27
42 -20 42 23 0 29 -4 40 -15 40 -8 0 -15 -8 -15 -17 -1 -17 -1 -17 -11 0 -19
32 -39 20 -39 -23z"/>
<path d="M1100 570 c0 -29 4 -40 15 -40 8 0 15 7 15 15 0 8 7 15 15 15 8 0 15
-7 15 -15 0 -8 5 -15 10 -15 6 0 10 18 10 40 0 22 -4 40 -10 40 -5 0 -10 -9
-10 -20 0 -11 -7 -20 -15 -20 -8 0 -15 9 -15 20 0 11 -7 20 -15 20 -11 0 -15
-11 -15 -40z"/>
<path d="M1200 570 c0 -40 0 -40 38 -39 23 1 28 3 15 6 -27 5 -30 20 -5 26 16
4 16 5 0 6 -26 2 -22 29 5 34 13 3 8 5 -15 6 -38 1 -38 1 -38 -39z"/>
<path d="M1280 570 c0 -28 4 -40 14 -40 8 0 17 6 19 13 4 10 6 10 6 0 1 -7 9
-13 19 -13 16 0 20 19 13 70 0 6 -17 10 -36 10 -34 0 -35 -1 -35 -40z m42 -2
c-9 -9 -12 -7 -12 12 0 19 3 21 12 12 9 -9 9 -15 0 -24z"/>
<path d="M1370 570 c0 -40 0 -40 38 -39 23 1 28 3 15 6 -27 5 -30 20 -5 26 16
4 16 5 0 6 -26 2 -22 29 5 34 13 3 8 5 -15 6 -38 1 -38 1 -38 -39z"/>
<path d="M803 441 c-18 -11 -33 -28 -33 -36 0 -20 6 -19 38 4 37 25 79 32 130
19 40 -10 42 -12 27 -28 -12 -13 -26 -17 -54 -13 -42 6 -81 -10 -81 -32 0 -20
41 -28 82 -17 25 7 44 6 68 -4 37 -16 140 -19 140 -4 0 6 -15 10 -34 10 -18 0
-47 5 -65 11 -29 10 -30 12 -14 25 10 7 42 14 71 14 58 0 112 22 112 45 0 20
-39 28 -102 21 -71 -8 -90 -9 -178 -1 -65 5 -79 4 -107 -14z m332 -11 c4 -6
-7 -10 -27 -9 -31 1 -32 1 -8 9 14 4 26 8 27 9 1 1 5 -3 8 -9z"/>
</g>
</svg>
